<svg width="1024" height="360" viewBox="0 0 1024 360" fill="none" xmlns="http://www.w3.org/2000/svg">
<path d="M325.198 124C293.475 124 265.637 149.033 262.832 179.892C262.616 181.403 262.616 182.697 262.616 184.208C262.4 213.125 285.059 235.784 315.487 235.784C347.209 235.784 375.048 210.751 377.853 179.892C380.443 149.033 356.92 124 325.198 124ZM345.915 179.892C344.404 197.803 331.456 212.478 317.213 212.478C303.834 212.478 294.123 199.746 294.123 183.345C294.123 183.129 294.123 182.697 294.123 182.482C294.123 182.266 294.123 182.266 294.123 182.05C294.123 181.403 294.123 180.54 294.339 179.676C295.849 161.765 308.797 147.091 323.04 147.091C337.283 147.091 347.425 161.981 345.915 179.892Z" fill="#005A8D"/>
<path opacity="0.62" d="M294.123 183.561L262.616 184.208V183.992C264.774 161.765 287.002 138.243 323.04 147.306C308.797 147.306 296.065 161.981 294.339 179.892C294.339 180.755 294.339 181.403 294.123 182.266C294.123 182.482 294.123 182.482 294.123 182.698C294.123 182.913 294.123 183.129 294.123 183.561C294.123 183.561 294.123 183.345 294.123 183.561Z" fill="url(#paint0_linear)"/>
<path d="M550.182 125.554H581.257L579.099 148.86H548.24L540.687 234.317H509.396L516.949 148.86H485.874L488.032 125.554H519.107H550.182Z" fill="#005A8D"/>
<path opacity="0.62" d="M516.949 148.86H548.024L540.471 234.317H509.396L516.949 148.86Z" fill="url(#paint1_linear)"/>
<path d="M106.355 156.37C106.355 169.75 148.004 166.944 148.004 198.882C148.004 233.41 107.218 236 97.9383 236C92.9749 236 76.3584 234.489 66 230.173L68.5896 200.393C79.1638 206.867 89.5222 211.83 98.3699 211.83C107.434 211.83 110.671 207.514 110.671 204.062C110.671 187.229 70.316 195.43 70.316 160.47C70.316 132.848 100.96 124 116.929 124C132.25 124 139.156 125.726 148.435 128.1L145.846 157.881C145.846 157.881 129.445 148.17 119.302 148.17C111.534 148.17 106.355 151.407 106.355 156.37Z" fill="#0089D7"/>
<path opacity="0.62" d="M141.098 180.108H77.0057C77.0057 180.108 56.5047 148.17 108.728 148.17H119.302C111.534 148.17 106.354 151.407 106.354 156.37C106.354 166.297 129.229 167.376 141.098 180.108Z" fill="url(#paint2_linear)"/>
<path d="M227.028 125.554H258.103L248.392 234.317H217.317L221.201 191.588H190.342L186.457 234.317H155.382L165.093 125.554H196.168L192.284 168.282H223.143L227.028 125.554Z" fill="#0089D7"/>
<path opacity="0.62" d="M223.143 168.282L220.985 191.588H190.342L192.5 168.282H223.143Z" fill="url(#paint3_linear)"/>
<path d="M482.076 157.492C482.076 141.739 469.344 125.554 451.433 125.554H423.163H413.668H392.088L382.377 234.317H413.452L416.905 195.257H421.005L439.564 234.317H475.602L455.749 192.667C473.013 187.488 482.076 174.109 482.076 157.492ZM441.074 149.076C446.469 149.076 451.001 154.687 451.001 159.434C451.001 164.182 447.117 172.382 438.485 172.382H419.063L421.221 149.292H441.074V149.076Z" fill="#0089D7"/>
<path opacity="0.62" d="M475.602 234.533H439.564L421.005 195.473H436.758C443.88 195.473 450.138 194.61 455.533 192.883L475.602 234.533Z" fill="url(#paint4_linear)"/>
<path d="M585.584 204.329C576.883 204.329 569.269 211.476 568.492 220.177C567.716 228.879 574.241 235.87 582.942 235.87C591.643 235.87 599.257 228.879 600.034 220.177C600.811 211.476 594.285 204.329 585.584 204.329Z" fill="#0089D7"/>
<path d="M642.3 211.01H689.129L686.971 234.317H640.142L642.3 211.01L640.142 234.317H609.067L618.778 125.554H649.853L642.3 211.01Z" fill="#0089D7"/>
<path opacity="0.62" d="M686.755 234.317H640.142L642.085 211.01H688.913L686.755 234.317Z" fill="url(#paint5_linear)"/>
<path d="M703.779 125.554H734.861L725.12 234.347H694.038L703.779 125.554Z" fill="#0089D7"/>
<path d="M818.238 125.554H849.313L839.602 234.317H808.527L775.293 179.072L770.33 234.317H739.255L748.966 125.554H780.041L813.058 180.798L818.238 125.554Z" fill="#005A8D"/>
<path opacity="0.62" d="M813.274 180.798L808.527 234.317L775.294 179.072L780.041 125.554L813.274 180.798Z" fill="url(#paint6_linear)"/>
<path d="M957.375 125.554L920.904 178.856L947.448 234.317H911.841L900.403 209.5L899.109 206.479L888.966 184.467L884.434 234.317H853.359L863.07 125.554H894.145L889.829 172.814L906.446 148.429L921.983 125.554C921.983 125.554 957.375 125.554 957.375 125.554Z" fill="#005A8D"/>
<path opacity="0.62" d="M921.12 178.856L947.664 234.317H911.841L900.403 209.5L899.109 206.479L888.966 184.467L890.045 172.814L906.662 148.429L922.199 125.554H957.59L921.12 178.856Z" fill="url(#paint7_linear)"/>
<defs>
<linearGradient id="paint0_linear" x1="292.828" y1="146.196" x2="292.828" y2="183.272" gradientUnits="userSpaceOnUse">
<stop offset="0.1417" stop-opacity="0.8"/>
<stop offset="0.4769" stop-opacity="0.4202"/>
<stop offset="0.9802" stop-opacity="0"/>
</linearGradient>
<linearGradient id="paint1_linear" x1="528.71" y1="148.86" x2="528.71" y2="234.317" gradientUnits="userSpaceOnUse">
<stop offset="0.06138" stop-opacity="0.8"/>
<stop offset="0.2638" stop-opacity="0"/>
</linearGradient>
<linearGradient id="paint2_linear" x1="107.069" y1="148.17" x2="107.069" y2="180.215" gradientUnits="userSpaceOnUse">
<stop offset="0.2228" stop-opacity="0.8"/>
<stop offset="0.5404" stop-opacity="0.2925"/>
<stop offset="0.7684" stop-opacity="0"/>
</linearGradient>
<linearGradient id="paint3_linear" x1="190.794" y1="177.123" x2="222.691" y2="182.747" gradientUnits="userSpaceOnUse">
<stop offset="0.00194" stop-opacity="0.8"/>
<stop offset="0.6213" stop-opacity="0"/>
</linearGradient>
<linearGradient id="paint4_linear" x1="448.304" y1="192.883" x2="448.304" y2="234.533" gradientUnits="userSpaceOnUse">
<stop offset="0.2309" stop-opacity="0.8"/>
<stop offset="0.4058" stop-opacity="0.4228"/>
<stop offset="0.6408" stop-opacity="0"/>
</linearGradient>
<linearGradient id="paint5_linear" x1="640.876" y1="218.493" x2="688.112" y2="226.822" gradientUnits="userSpaceOnUse">
<stop offset="0.00194" stop-opacity="0.8"/>
<stop offset="0.6213" stop-opacity="0"/>
</linearGradient>
<linearGradient id="paint6_linear" x1="775.427" y1="178.285" x2="813.137" y2="181.585" gradientUnits="userSpaceOnUse">
<stop stop-opacity="0.8"/>
<stop offset="0.3142" stop-opacity="0.2511"/>
<stop offset="0.4899" stop-opacity="0"/>
</linearGradient>
<linearGradient id="paint7_linear" x1="888.804" y1="179.935" x2="957.428" y2="179.935" gradientUnits="userSpaceOnUse">
<stop offset="0.09073" stop-opacity="0.8"/>
<stop offset="0.3494" stop-opacity="0"/>
</linearGradient>
</defs>
</svg>
